<svg width="664" height="664" viewBox="0 0 664 664" fill="none" xmlns="http://www.w3.org/2000/svg">
<g filter="url(#filter0_i)">
<path d="M662.588 331.294C662.588 514.263 514.263 662.588 331.294 662.588C148.325 662.588 0 514.263 0 331.294C0 148.325 148.325 0 331.294 0C514.263 0 662.588 148.325 662.588 331.294ZM160.648 331.294C160.648 425.539 237.049 501.94 331.294 501.94C425.539 501.94 501.94 425.539 501.94 331.294C501.94 237.049 425.539 160.648 331.294 160.648C237.049 160.648 160.648 237.049 160.648 331.294Z" fill="url(#paint0_diamond)"/>
<path d="M662.588 331.294C662.588 514.263 514.263 662.588 331.294 662.588C148.325 662.588 0 514.263 0 331.294C0 148.325 148.325 0 331.294 0C514.263 0 662.588 148.325 662.588 331.294ZM160.648 331.294C160.648 425.539 237.049 501.94 331.294 501.94C425.539 501.94 501.94 425.539 501.94 331.294C501.94 237.049 425.539 160.648 331.294 160.648C237.049 160.648 160.648 237.049 160.648 331.294Z" fill="url(#paint1_diamond)"/>
<path d="M662.588 331.294C662.588 514.263 514.263 662.588 331.294 662.588C148.325 662.588 0 514.263 0 331.294C0 148.325 148.325 0 331.294 0C514.263 0 662.588 148.325 662.588 331.294ZM160.648 331.294C160.648 425.539 237.049 501.94 331.294 501.94C425.539 501.94 501.94 425.539 501.94 331.294C501.94 237.049 425.539 160.648 331.294 160.648C237.049 160.648 160.648 237.049 160.648 331.294Z" fill="url(#paint2_diamond)"/>
<path d="M662.588 331.294C662.588 514.263 514.263 662.588 331.294 662.588C148.325 662.588 0 514.263 0 331.294C0 148.325 148.325 0 331.294 0C514.263 0 662.588 148.325 662.588 331.294ZM160.648 331.294C160.648 425.539 237.049 501.94 331.294 501.94C425.539 501.94 501.94 425.539 501.94 331.294C501.94 237.049 425.539 160.648 331.294 160.648C237.049 160.648 160.648 237.049 160.648 331.294Z" fill="url(#paint3_diamond)"/>
<path d="M662.588 331.294C662.588 514.263 514.263 662.588 331.294 662.588C148.325 662.588 0 514.263 0 331.294C0 148.325 148.325 0 331.294 0C514.263 0 662.588 148.325 662.588 331.294ZM160.648 331.294C160.648 425.539 237.049 501.94 331.294 501.94C425.539 501.94 501.94 425.539 501.94 331.294C501.94 237.049 425.539 160.648 331.294 160.648C237.049 160.648 160.648 237.049 160.648 331.294Z" fill="url(#paint4_diamond)"/>
</g>
<g filter="url(#filter1_i)">
<circle cx="619.635" cy="619.635" r="43.635" fill="url(#paint5_diamond)"/>
<circle cx="619.635" cy="619.635" r="43.635" fill="url(#paint6_diamond)"/>
<circle cx="619.635" cy="619.635" r="43.635" fill="url(#paint7_diamond)"/>
<circle cx="619.635" cy="619.635" r="43.635" fill="url(#paint8_diamond)"/>
<circle cx="619.635" cy="619.635" r="43.635" fill="url(#paint9_diamond)"/>
</g>
<defs>
<filter id="filter0_i" x="0" y="0" width="662.588" height="666.588" filterUnits="userSpaceOnUse" color-interpolation-filters="sRGB">
<feFlood flood-opacity="0" result="BackgroundImageFix"/>
<feBlend mode="normal" in="SourceGraphic" in2="BackgroundImageFix" result="shape"/>
<feColorMatrix in="SourceAlpha" type="matrix" values="0 0 0 0 0 0 0 0 0 0 0 0 0 0 0 0 0 0 127 0" result="hardAlpha"/>
<feOffset dy="4"/>
<feGaussianBlur stdDeviation="2"/>
<feComposite in2="hardAlpha" operator="arithmetic" k2="-1" k3="1"/>
<feColorMatrix type="matrix" values="0 0 0 0 0.775 0 0 0 0 0.516408 0 0 0 0 0.277708 0 0 0 0.25 0"/>
<feBlend mode="normal" in2="shape" result="effect1_innerShadow"/>
</filter>
<filter id="filter1_i" x="576" y="576" width="87.27" height="91.27" filterUnits="userSpaceOnUse" color-interpolation-filters="sRGB">
<feFlood flood-opacity="0" result="BackgroundImageFix"/>
<feBlend mode="normal" in="SourceGraphic" in2="BackgroundImageFix" result="shape"/>
<feColorMatrix in="SourceAlpha" type="matrix" values="0 0 0 0 0 0 0 0 0 0 0 0 0 0 0 0 0 0 127 0" result="hardAlpha"/>
<feOffset dy="4"/>
<feGaussianBlur stdDeviation="2"/>
<feComposite in2="hardAlpha" operator="arithmetic" k2="-1" k3="1"/>
<feColorMatrix type="matrix" values="0 0 0 0 0.775 0 0 0 0 0.516408 0 0 0 0 0.277708 0 0 0 0.25 0"/>
<feBlend mode="normal" in2="shape" result="effect1_innerShadow"/>
</filter>
<radialGradient id="paint0_diamond" cx="0" cy="0" r="1" gradientUnits="userSpaceOnUse" gradientTransform="translate(106.014 577.777) rotate(-43.5607) scale(1119.18)">
<stop stop-color="#F83DB3"/>
<stop offset="1" stop-color="#F83DB3" stop-opacity="0"/>
</radialGradient>
<radialGradient id="paint1_diamond" cx="0" cy="0" r="1" gradientUnits="userSpaceOnUse" gradientTransform="translate(596.329 113.965) rotate(146.644) scale(1513.55)">
<stop stop-color="#DB3E69"/>
<stop offset="1" stop-color="#DB3E69" stop-opacity="0"/>
</radialGradient>
<radialGradient id="paint2_diamond" cx="0" cy="0" r="1" gradientUnits="userSpaceOnUse" gradientTransform="translate(1.46899e-06 230.581) rotate(4.11819) scale(664.303)">
<stop stop-color="#EF9058"/>
<stop offset="1" stop-color="#EF9058" stop-opacity="0"/>
</radialGradient>
<radialGradient id="paint3_diamond" cx="0" cy="0" r="1" gradientUnits="userSpaceOnUse" gradientTransform="translate(234.556) rotate(71.7371) scale(697.734)">
<stop stop-color="#F78B63"/>
<stop offset="1" stop-color="#F78B63" stop-opacity="0"/>
</radialGradient>
<radialGradient id="paint4_diamond" cx="0" cy="0" r="1" gradientUnits="userSpaceOnUse" gradientTransform="translate(95.4127 103.364) rotate(50.9275) scale(689.601)">
<stop stop-color="#EF9058"/>
<stop offset="1" stop-color="#EF9058" stop-opacity="0"/>
</radialGradient>
<radialGradient id="paint5_diamond" cx="0" cy="0" r="1" gradientUnits="userSpaceOnUse" gradientTransform="translate(589.963 652.099) rotate(-43.5607) scale(147.408)">
<stop stop-color="#F83DB3"/>
<stop offset="1" stop-color="#F83DB3" stop-opacity="0"/>
</radialGradient>
<radialGradient id="paint6_diamond" cx="0" cy="0" r="1" gradientUnits="userSpaceOnUse" gradientTransform="translate(654.543 591.01) rotate(146.644) scale(199.35)">
<stop stop-color="#DB3E69"/>
<stop offset="1" stop-color="#DB3E69" stop-opacity="0"/>
</radialGradient>
<radialGradient id="paint7_diamond" cx="0" cy="0" r="1" gradientUnits="userSpaceOnUse" gradientTransform="translate(576 606.37) rotate(4.11819) scale(87.4959)">
<stop stop-color="#EF9058"/>
<stop offset="1" stop-color="#EF9058" stop-opacity="0"/>
</radialGradient>
<radialGradient id="paint8_diamond" cx="0" cy="0" r="1" gradientUnits="userSpaceOnUse" gradientTransform="translate(606.894 576) rotate(71.7371) scale(91.8991)">
<stop stop-color="#F78B63"/>
<stop offset="1" stop-color="#F78B63" stop-opacity="0"/>
</radialGradient>
<radialGradient id="paint9_diamond" cx="0" cy="0" r="1" gradientUnits="userSpaceOnUse" gradientTransform="translate(588.567 589.614) rotate(50.9275) scale(90.8279)">
<stop stop-color="#EF9058"/>
<stop offset="1" stop-color="#EF9058" stop-opacity="0"/>
</radialGradient>
</defs>
</svg>
