<svg width="25" height="25" viewBox="0 0 25 25" fill="none" xmlns="http://www.w3.org/2000/svg">
<path d="M0.942961 5.69702H24.057C24.5783 5.69702 25 5.31761 25 4.84851C25 4.37942 24.5783 4 24.057 4H0.942961C0.421649 4 0 4.37942 0 4.84851C0 5.31761 0.421649 5.69702 0.942961 5.69702Z" fill="black"/>
<path d="M0.942961 13.3098H24.057C24.5783 13.3098 25 12.9304 25 12.4613C25 11.9922 24.5783 11.6128 24.057 11.6128H0.942961C0.421649 11.6128 0 11.9922 0 12.4613C0 12.9304 0.421649 13.3098 0.942961 13.3098Z" fill="black"/>
<path d="M0.942961 21.4045H24.057C24.5783 21.4045 25 21.0251 25 20.556C25 20.0869 24.5783 19.7075 24.057 19.7075H0.942961C0.421649 19.7075 0 20.0869 0 20.556C0 21.0251 0.421649 21.4045 0.942961 21.4045Z" fill="black"/>
</svg>
