<svg width="25" height="27" viewBox="0 0 25 27" fill="none" xmlns="http://www.w3.org/2000/svg">
<path d="M5.09068 5.35418C9.12756 1.74838 15.1689 1.69324 19.2616 4.98478L16.0176 5.10607C15.5988 5.12261 15.275 5.46445 15.2918 5.87796C15.3085 6.28044 15.6435 6.5947 16.0455 6.5947C16.0567 6.5947 16.0623 6.5947 16.0734 6.5947L21.0539 6.41276C21.4615 6.39622 21.7798 6.07093 21.7798 5.66844V5.61331C21.7798 5.60228 21.7798 5.59677 21.7798 5.58574V5.58023L21.5955 0.717363C21.5788 0.303854 21.227 -0.0159266 20.8138 0.000613751C20.3951 0.0171541 20.0712 0.358988 20.088 0.772497L20.2052 3.82144C18.1784 2.18394 15.6826 1.23563 13.0137 1.1033C9.70825 0.937901 6.53123 2.05713 4.08007 4.25149C0.707628 7.26735 -0.72175 11.8545 0.350283 16.2212C0.434036 16.563 0.741129 16.7891 1.08172 16.7891C1.14314 16.7891 1.19898 16.7836 1.2604 16.767C1.66241 16.6678 1.91367 16.2653 1.81316 15.8683C0.875133 12.031 2.12584 8.00064 5.09068 5.35418Z" fill="black"/>
<path d="M24.65 10.7794C24.5495 10.3825 24.1419 10.1344 23.7399 10.2336C23.3379 10.3329 23.0866 10.7353 23.1871 11.1323C24.1307 14.9697 22.8744 19 19.9096 21.6465C17.8269 23.5045 15.2138 24.4197 12.6119 24.4197C10.1273 24.4197 7.64819 23.5872 5.6493 21.9442L8.9324 21.652C9.34558 21.6134 9.65267 21.255 9.61359 20.8415C9.5745 20.428 9.21158 20.1303 8.79281 20.1689L3.82907 20.6099C3.41589 20.6485 3.1088 21.0069 3.14789 21.4204L3.59457 26.3219C3.62807 26.7078 3.95749 27 4.34276 27C4.36509 27 4.38742 27 4.40976 26.9945C4.82294 26.9559 5.13003 26.5975 5.09095 26.184L4.82294 23.2013C6.84975 24.8222 9.33441 25.765 11.9866 25.8973C12.1988 25.9084 12.4109 25.9139 12.6175 25.9139C15.694 25.9139 18.6198 24.8002 20.9202 22.7492C24.2926 19.7333 25.722 15.1516 24.65 10.7794Z" fill="black"/>
</svg>
