<svg width="68" height="68" viewBox="0 0 68 68" fill="none" xmlns="http://www.w3.org/2000/svg">
<g filter="url(#filter0_di)">
<path d="M59 30C59 43.8071 47.8071 55 34 55C20.1929 55 9 43.8071 9 30C9 16.1929 20.1929 5 34 5C47.8071 5 59 16.1929 59 30ZM21.1228 30C21.1228 37.1119 26.8881 42.8772 34 42.8772C41.1119 42.8772 46.8772 37.1119 46.8772 30C46.8772 22.8881 41.1119 17.1228 34 17.1228C26.8881 17.1228 21.1228 22.8881 21.1228 30Z" fill="url(#paint0_diamond)"/>
<path d="M59 30C59 43.8071 47.8071 55 34 55C20.1929 55 9 43.8071 9 30C9 16.1929 20.1929 5 34 5C47.8071 5 59 16.1929 59 30ZM21.1228 30C21.1228 37.1119 26.8881 42.8772 34 42.8772C41.1119 42.8772 46.8772 37.1119 46.8772 30C46.8772 22.8881 41.1119 17.1228 34 17.1228C26.8881 17.1228 21.1228 22.8881 21.1228 30Z" fill="url(#paint1_diamond)"/>
<path d="M59 30C59 43.8071 47.8071 55 34 55C20.1929 55 9 43.8071 9 30C9 16.1929 20.1929 5 34 5C47.8071 5 59 16.1929 59 30ZM21.1228 30C21.1228 37.1119 26.8881 42.8772 34 42.8772C41.1119 42.8772 46.8772 37.1119 46.8772 30C46.8772 22.8881 41.1119 17.1228 34 17.1228C26.8881 17.1228 21.1228 22.8881 21.1228 30Z" fill="url(#paint2_diamond)"/>
<path d="M59 30C59 43.8071 47.8071 55 34 55C20.1929 55 9 43.8071 9 30C9 16.1929 20.1929 5 34 5C47.8071 5 59 16.1929 59 30ZM21.1228 30C21.1228 37.1119 26.8881 42.8772 34 42.8772C41.1119 42.8772 46.8772 37.1119 46.8772 30C46.8772 22.8881 41.1119 17.1228 34 17.1228C26.8881 17.1228 21.1228 22.8881 21.1228 30Z" fill="url(#paint3_diamond)"/>
<path d="M59 30C59 43.8071 47.8071 55 34 55C20.1929 55 9 43.8071 9 30C9 16.1929 20.1929 5 34 5C47.8071 5 59 16.1929 59 30ZM21.1228 30C21.1228 37.1119 26.8881 42.8772 34 42.8772C41.1119 42.8772 46.8772 37.1119 46.8772 30C46.8772 22.8881 41.1119 17.1228 34 17.1228C26.8881 17.1228 21.1228 22.8881 21.1228 30Z" fill="url(#paint4_diamond)"/>
</g>
<defs>
<filter id="filter0_di" x="0" y="0" width="68" height="68" filterUnits="userSpaceOnUse" color-interpolation-filters="sRGB">
<feFlood flood-opacity="0" result="BackgroundImageFix"/>
<feColorMatrix in="SourceAlpha" type="matrix" values="0 0 0 0 0 0 0 0 0 0 0 0 0 0 0 0 0 0 127 0"/>
<feOffset dy="4"/>
<feGaussianBlur stdDeviation="4.5"/>
<feColorMatrix type="matrix" values="0 0 0 0 0 0 0 0 0 0 0 0 0 0 0 0 0 0 0.25 0"/>
<feBlend mode="normal" in2="BackgroundImageFix" result="effect1_dropShadow"/>
<feBlend mode="normal" in="SourceGraphic" in2="effect1_dropShadow" result="shape"/>
<feColorMatrix in="SourceAlpha" type="matrix" values="0 0 0 0 0 0 0 0 0 0 0 0 0 0 0 0 0 0 127 0" result="hardAlpha"/>
<feOffset dy="4"/>
<feGaussianBlur stdDeviation="2"/>
<feComposite in2="hardAlpha" operator="arithmetic" k2="-1" k3="1"/>
<feColorMatrix type="matrix" values="0 0 0 0 0.775 0 0 0 0 0.516408 0 0 0 0 0.277708 0 0 0 0.25 0"/>
<feBlend mode="normal" in2="shape" result="effect2_innerShadow"/>
</filter>
<radialGradient id="paint0_diamond" cx="0" cy="0" r="1" gradientUnits="userSpaceOnUse" gradientTransform="translate(17 48.6) rotate(-43.5607) scale(84.4552)">
<stop stop-color="#F83DB3"/>
<stop offset="1" stop-color="#F83DB3" stop-opacity="0"/>
</radialGradient>
<radialGradient id="paint1_diamond" cx="0" cy="0" r="1" gradientUnits="userSpaceOnUse" gradientTransform="translate(54 13.6) rotate(146.644) scale(114.215)">
<stop stop-color="#DB3E69"/>
<stop offset="1" stop-color="#DB3E69" stop-opacity="0"/>
</radialGradient>
<radialGradient id="paint2_diamond" cx="0" cy="0" r="1" gradientUnits="userSpaceOnUse" gradientTransform="translate(9 22.4) rotate(4.11819) scale(50.1294)">
<stop stop-color="#EF9058"/>
<stop offset="1" stop-color="#EF9058" stop-opacity="0"/>
</radialGradient>
<radialGradient id="paint3_diamond" cx="0" cy="0" r="1" gradientUnits="userSpaceOnUse" gradientTransform="translate(26.7 5) rotate(71.7371) scale(52.6522)">
<stop stop-color="#F78B63"/>
<stop offset="1" stop-color="#F78B63" stop-opacity="0"/>
</radialGradient>
<radialGradient id="paint4_diamond" cx="0" cy="0" r="1" gradientUnits="userSpaceOnUse" gradientTransform="translate(16.2 12.8) rotate(50.9275) scale(52.0384)">
<stop stop-color="#EF9058"/>
<stop offset="1" stop-color="#EF9058" stop-opacity="0"/>
</radialGradient>
</defs>
</svg>
