<svg width="25" height="25" viewBox="0 0 25 25" fill="none" xmlns="http://www.w3.org/2000/svg">
<path d="M24.7032 23.2699L13.9333 12.5L24.7031 1.73016C25.0989 1.3344 25.0989 0.692653 24.7031 0.296851C24.3073 -0.0989504 23.6656 -0.0989504 23.2698 0.296851L12.5 11.0667L1.73015 0.296851C1.3344 -0.0989504 0.69265 -0.0989504 0.29685 0.296851C-0.09895 0.692604 -0.09895 1.33435 0.29685 1.73016L11.0667 12.5L0.29685 23.2699C-0.09895 23.6657 -0.09895 24.3074 0.29685 24.7032C0.692601 25.0989 1.33435 25.099 1.73015 24.7032L12.5 13.9333L23.2699 24.7032C23.6656 25.0989 24.3074 25.099 24.7032 24.7032C25.099 24.3074 25.099 23.6657 24.7032 23.2699Z" fill="black"/>
</svg>
